<?xml version="1.0" standalone="no"?>
<!DOCTYPE svg PUBLIC "-//W3C//DTD SVG 20010904//EN"
 "http://www.w3.org/TR/2001/REC-SVG-20010904/DTD/svg10.dtd">
<svg version="1.0" xmlns="http://www.w3.org/2000/svg"
 width="700.000000pt" height="700.000000pt" viewBox="0 0 700.000000 700.000000"
 preserveAspectRatio="xMidYMid meet">
<metadata>
Created by potrace 1.14, written by Peter Selinger 2001-2017
</metadata>
<g transform="translate(0.000000,700.000000) scale(0.100000,-0.100000)"
fill="#000000" stroke="none">
<path d="M3605 6830 c-107 -23 -192 -70 -261 -142 -23 -24 -115 -144 -205
-268 -89 -124 -599 -823 -1133 -1555 -533 -731 -982 -1355 -997 -1385 -16 -30
-33 -75 -38 -100 -13 -58 -13 -172 0 -230 31 -133 137 -267 259 -326 44 -22
277 -88 715 -204 358 -94 653 -174 657 -178 4 -4 50 -428 103 -942 53 -514
101 -953 106 -975 41 -151 168 -282 326 -337 55 -18 88 -23 168 -22 148 2 256
46 351 146 23 24 491 660 1040 1413 548 754 1058 1453 1133 1555 140 192 183
264 200 340 13 58 13 172 0 230 -31 134 -139 271 -260 328 -40 19 -308 94
-714 202 -357 94 -653 175 -657 178 -4 4 -50 426 -102 937 -53 512 -102 953
-110 981 -54 204 -240 348 -461 359 -44 2 -98 0 -120 -5z m1433 -2786 c255
-69 474 -132 487 -140 13 -8 31 -33 39 -55 20 -50 8 -108 -30 -138 -14 -11
-226 -105 -472 -210 -489 -209 -504 -213 -561 -165 -17 14 -35 42 -41 62 -5
20 -19 180 -31 355 -23 346 -22 359 30 396 33 23 59 30 91 24 14 -2 234 -60
488 -129z"/>
</g>
</svg>
