<svg width="0" height="0" class="hidden">
    <symbol fill="none" xmlns="http://www.w3.org/2000/svg" viewBox="0 0 30 30" id="gem">
        <path d="M6.12 6.52943C5.47269 6.92048 4.93739 7.47212 4.56596 8.13088C4.19453 8.78964 3.99958 9.53318 4 10.2894V19.9494C4 21.4894 4.8 22.9094 6.12 23.7094L12.6 27.6094C13.99 28.4594 15.73 28.4594 17.13 27.6094L23.6 23.7094C24.2473 23.3184 24.7826 22.7667 25.154 22.108C25.5255 21.4492 25.7204 20.7057 25.72 19.9494V10.2894C25.72 8.74943 24.92 7.31943 23.6 6.52943L17.13 2.62943C16.4463 2.21761 15.6632 2 14.865 2C14.0668 2 13.2837 2.21761 12.6 2.62943L6.12 6.52943Z" fill="#1CB0F6" stroke="white" stroke-width="2"></path>
        <path fill-rule="evenodd" clip-rule="evenodd" d="M13.24 5.51943C13.96 5.07943 14.89 5.59943 14.89 6.43943V9.60943C14.89 9.98943 14.69 10.3394 14.37 10.5294L11.42 12.3194C11.06 12.5394 10.59 12.5194 10.24 12.2794L7.86 10.5994C7.22 10.1594 7.25 9.19943 7.91 8.79943L13.24 5.51943Z" fill="#DDF4FF"></path>
    </symbol>
    <symbol fill="none" xmlns="http://www.w3.org/2000/svg" viewBox="0 0 30 30" id="flame">
        <path d="M3.57 16.2923L3.54 7.83225C3.54 5.94225 4.75 4.55225 6.56 4.86225C6.91 4.92225 7.5 5.10225 7.81 5.26225L9.5 6.18225L12.75 2.08225C13.0198 1.74459 13.3621 1.47198 13.7516 1.28463C14.1411 1.09728 14.5678 1 15 1C15.4322 1 15.8589 1.09728 16.2484 1.28463C16.6379 1.47198 16.9802 1.74459 17.25 2.08225L24.02 10.6123C25.6216 12.5513 26.4984 14.9873 26.5 17.5023C26.5 23.6423 21.34 28.6123 15 28.6123C8.66 28.6123 3.5 23.6423 3.5 17.5023C3.5 17.1023 3.52 16.6923 3.57 16.2923Z" fill="#FF9600" stroke="white" stroke-width="2"></path>
        <path d="M11.51 16.6923C11.5257 16.6565 11.5458 16.6229 11.57 16.5923L14.22 12.9723C14.3053 12.8545 14.4173 12.7587 14.5468 12.6926C14.6763 12.6265 14.8196 12.592 14.965 12.592C15.1104 12.592 15.2537 12.6265 15.3832 12.6926C15.5127 12.7587 15.6247 12.8545 15.71 12.9723L18.23 16.4123C19.04 17.2123 19.5 18.2923 19.5 19.4323C19.5 21.8223 17.48 23.7623 15 23.7623C13.8294 23.7837 12.6981 23.3398 11.8544 22.528C11.0108 21.7162 10.5236 20.6028 10.5 19.4323C10.5 18.3923 10.88 17.4323 11.51 16.6923Z" fill="#FFC800"></path>
    </symbol>
    <symbol fill="none" xmlns="http://www.w3.org/2000/svg" viewBox="0 0 30 30" id="gym">
        <g clip-path="url(#a)">
            <mask id="b" maskUnits="userSpaceOnUse" x="0" y="3" width="30" height="24">
                <path d="M30 3H0v24h30V3Z" fill="#fff"></path>
            </mask>
            <g mask="url(#b)">
                <path d="m11.429 17.347 6.256-3.57" stroke="#00CD9C" stroke-width="4"></path>
                <path d="M19.944 5.155c-.897-1.536-2.886-2.063-4.44-1.176a3.192 3.192 0 0 0-1.19 4.389l6.14 10.51c.898 1.537 2.886 2.064 4.441 1.177a3.192 3.192 0 0 0 1.19-4.389l-6.14-10.51ZM9.309 11.224C8.41 9.687 6.423 9.16 4.868 10.048a3.192 3.192 0 0 0-1.19 4.388l6.14 10.51c.898 1.537 2.886 2.064 4.441 1.177a3.192 3.192 0 0 0 1.19-4.389l-6.14-10.51Z" fill="#00CD9C"></path>
                <path d="M25.77 5.131c-.898-1.536-2.887-2.063-4.442-1.176a3.192 3.192 0 0 0-1.19 4.389l3.251 5.564c.898 1.537 2.886 2.063 4.441 1.176a3.192 3.192 0 0 0 1.19-4.388L25.77 5.13ZM6.374 16.195c-.898-1.537-2.886-2.063-4.44-1.176a3.192 3.192 0 0 0-1.19 4.389l3.25 5.564c.898 1.537 2.886 2.063 4.441 1.176a3.192 3.192 0 0 0 1.19-4.389l-3.251-5.564Z" fill="#00CD9C"></path>
                <path opacity=".2" d="M2.946 16.804c-.518.296-.696.95-.396 1.463l.722 1.237c.3.512.962.687 1.48.392.519-.296.696-.951.397-1.463l-.723-1.237a1.09 1.09 0 0 0-1.48-.392ZM23.174 6.095c-.519.296-.696.951-.397 1.463l.723 1.237c.299.512.962.687 1.48.392.518-.296.696-.951.396-1.463l-.722-1.237a1.09 1.09 0 0 0-1.48-.392ZM5.836 11.807c-.519.296-.696.95-.397 1.463l1.084 1.855c.299.512.962.688 1.48.392.518-.296.696-.95.396-1.463l-1.083-1.855a1.09 1.09 0 0 0-1.48-.392ZM16.672 6.095c-.518.296-.696.951-.397 1.463l1.084 1.855c.3.512.962.688 1.48.392.519-.296.696-.95.397-1.463l-1.084-1.855a1.09 1.09 0 0 0-1.48-.392Z" fill="#fff"></path>
            </g>
        </g>
        <defs>
            <clipPath id="a">
                <path fill="#fff" d="M0 3h30v24H0z"></path>
            </clipPath>
        </defs>
    </symbol>
    <symbol fill="none" xmlns="http://www.w3.org/2000/svg" viewBox="0 0 30 30" id="timer">
        <g clip-path="url(#a)">
            <path d="M17.19 3.93h-4.38v4.489h4.38v-4.49Z" fill="#1CB0F6"></path>
            <path fill-rule="evenodd" clip-rule="evenodd" d="M11.35 2.01a.69.69 0 0 1 .683-.699h5.933a.69.69 0 0 1 .683.698v1.97a.69.69 0 0 1-.683.699h-5.933a.69.69 0 0 1-.682-.699V2.01Z" fill="#1CB0F6"></path>
            <path d="M24.752 17.396c0 5.526-4.368 10-9.752 10s-9.753-4.474-9.753-10c0-5.525 4.369-10 9.753-10s9.752 4.475 9.752 10Z" fill="#DDF4FF" stroke="#1CB0F6" stroke-width="3.666"></path>
            <g opacity=".01" fill-rule="evenodd" clip-rule="evenodd" fill="#1CB0F6">
                <path d="M14.27 10.987a.69.69 0 0 1 .683-.698h.095a.69.69 0 0 1 .682.698v1.222a.69.69 0 0 1-.682.699h-.095a.69.69 0 0 1-.682-.699v-1.222ZM14.27 22.584a.69.69 0 0 1 .683-.698h.095a.69.69 0 0 1 .682.698v1.222a.69.69 0 0 1-.682.698h-.095a.69.69 0 0 1-.682-.698v-1.222ZM8.75 18.145a.69.69 0 0 1-.683-.698v-.1a.69.69 0 0 1 .683-.699h1.19a.69.69 0 0 1 .682.699v.1a.69.69 0 0 1-.683.698H8.75ZM20.061 18.145a.69.69 0 0 1-.682-.698v-.1a.69.69 0 0 1 .682-.699h1.19a.69.69 0 0 1 .682.699v.1a.69.69 0 0 1-.683.698h-1.189Z"></path>
            </g>
            <path fill-rule="evenodd" clip-rule="evenodd" d="m14.824 17.378 4.872 4.996c2.708-2.776 2.708-7.276 0-10.052a6.828 6.828 0 0 0-4.681-2.078" fill="#84D8FF"></path>
            <path fill-rule="evenodd" clip-rule="evenodd" d="M15 19.267c-1.008 0-1.825-.838-1.825-1.87 0-1.034.817-1.871 1.825-1.871s1.824.837 1.824 1.87c0 1.033-.817 1.87-1.824 1.87Z" fill="#1CB0F6"></path>
            <path fill-rule="evenodd" clip-rule="evenodd" d="M19.782 21.428a.71.71 0 0 1 0 .986l-.068.07a.672.672 0 0 1-.966 0l-3.422-3.508a.71.71 0 0 1 0-.987l.068-.07a.672.672 0 0 1 .966 0l3.422 3.509Z" fill="#1CB0F6" stroke="#1CB0F6" stroke-width=".459"></path>
            <path opacity=".75" d="M9.841 15.122a5.717 5.717 0 0 0-.395 2.3 5.661 5.661 0 0 0 1.518 3.685" stroke="#fff" stroke-width="3.142" stroke-linecap="round"></path>
        </g>
        <defs>
            <clipPath id="a">
                <path fill="#fff" d="M3 1h24v29H3z"></path>
            </clipPath>
        </defs>
    </symbol>
</svg>
